<svg width="268" height="274" viewBox="0 0 268 274" fill="none" xmlns="http://www.w3.org/2000/svg">
<circle cx="45" cy="162" r="45" fill="#6F5F8F"/>
<circle cx="107" cy="215" r="59" fill="#534077"/>
<path d="M55.0511 46H47.142L59.1932 11.0909H68.7045L80.7386 46H72.8295L64.0852 19.0682H63.8125L55.0511 46ZM54.5568 32.2784H73.2386V38.0398H54.5568V32.2784ZM84.9403 46V11.0909H98.9176C101.486 11.0909 103.628 11.4716 105.344 12.233C107.06 12.9943 108.349 14.0511 109.213 15.4034C110.077 16.7443 110.509 18.2898 110.509 20.0398C110.509 21.4034 110.236 22.6023 109.69 23.6364C109.145 24.6591 108.395 25.5 107.44 26.1591C106.497 26.8068 105.418 27.267 104.202 27.5398V27.8807C105.531 27.9375 106.776 28.3125 107.935 29.0057C109.105 29.6989 110.054 30.6705 110.781 31.9205C111.509 33.1591 111.872 34.6364 111.872 36.3523C111.872 38.2045 111.412 39.858 110.491 41.3125C109.582 42.7557 108.236 43.8977 106.452 44.7386C104.668 45.5795 102.469 46 99.8551 46H84.9403ZM92.321 39.9659H98.3381C100.395 39.9659 101.895 39.5739 102.838 38.7898C103.781 37.9943 104.253 36.9375 104.253 35.6193C104.253 34.6534 104.02 33.8011 103.554 33.0625C103.088 32.3239 102.423 31.7443 101.56 31.3239C100.707 30.9034 99.6903 30.6932 98.5085 30.6932H92.321V39.9659ZM92.321 25.6989H97.7926C98.804 25.6989 99.7017 25.5227 100.486 25.1705C101.281 24.8068 101.906 24.2955 102.361 23.6364C102.827 22.9773 103.06 22.1875 103.06 21.267C103.06 20.0057 102.611 18.9886 101.713 18.2159C100.827 17.4432 99.5653 17.0568 97.929 17.0568H92.321V25.6989ZM148.754 28.5455C148.754 32.3523 148.033 35.5909 146.589 38.2614C145.158 40.9318 143.203 42.9716 140.726 44.3807C138.26 45.7784 135.487 46.4773 132.408 46.4773C129.305 46.4773 126.521 45.7727 124.055 44.3636C121.589 42.9545 119.641 40.9148 118.209 38.2443C116.777 35.5739 116.061 32.3409 116.061 28.5455C116.061 24.7386 116.777 21.5 118.209 18.8295C119.641 16.1591 121.589 14.125 124.055 12.7273C126.521 11.3182 129.305 10.6136 132.408 10.6136C135.487 10.6136 138.26 11.3182 140.726 12.7273C143.203 14.125 145.158 16.1591 146.589 18.8295C148.033 21.5 148.754 24.7386 148.754 28.5455ZM141.271 28.5455C141.271 26.0795 140.902 24 140.163 22.3068C139.436 20.6136 138.408 19.3295 137.078 18.4545C135.749 17.5795 134.192 17.142 132.408 17.142C130.624 17.142 129.067 17.5795 127.737 18.4545C126.408 19.3295 125.374 20.6136 124.635 22.3068C123.908 24 123.544 26.0795 123.544 28.5455C123.544 31.0114 123.908 33.0909 124.635 34.7841C125.374 36.4773 126.408 37.7614 127.737 38.6364C129.067 39.5114 130.624 39.9489 132.408 39.9489C134.192 39.9489 135.749 39.5114 137.078 38.6364C138.408 37.7614 139.436 36.4773 140.163 34.7841C140.902 33.0909 141.271 31.0114 141.271 28.5455ZM175.784 11.0909H183.165V33.7614C183.165 36.3068 182.557 38.5341 181.341 40.4432C180.136 42.3523 178.449 43.8409 176.278 44.9091C174.108 45.9659 171.58 46.4943 168.693 46.4943C165.795 46.4943 163.261 45.9659 161.091 44.9091C158.92 43.8409 157.233 42.3523 156.028 40.4432C154.824 38.5341 154.222 36.3068 154.222 33.7614V11.0909H161.602V33.1307C161.602 34.4602 161.892 35.642 162.472 36.6761C163.063 37.7102 163.892 38.5227 164.96 39.1136C166.028 39.7045 167.273 40 168.693 40C170.125 40 171.369 39.7045 172.426 39.1136C173.494 38.5227 174.318 37.7102 174.898 36.6761C175.489 35.642 175.784 34.4602 175.784 33.1307V11.0909ZM187.908 17.1761V11.0909H216.578V17.1761H205.891V46H198.595V17.1761H187.908ZM47.7045 75.1761V69.0909H76.375V75.1761H65.6875V104H58.392V75.1761H47.7045ZM81.0966 104V69.0909H88.4773V83.4943H103.46V69.0909H110.824V104H103.46V89.5795H88.4773V104H81.0966ZM116.909 104V69.0909H140.432V75.1761H124.29V83.4943H139.222V89.5795H124.29V97.9148H140.5V104H116.909ZM49.0341 162V127.091H62.8068C65.4545 127.091 67.7102 127.597 69.5739 128.608C71.4375 129.608 72.858 131 73.8352 132.784C74.8239 134.557 75.3182 136.602 75.3182 138.92C75.3182 141.239 74.8182 143.284 73.8182 145.057C72.8182 146.83 71.3693 148.21 69.4716 149.199C67.5852 150.187 65.3011 150.682 62.6193 150.682H53.8409V144.767H61.4261C62.8466 144.767 64.017 144.523 64.9375 144.034C65.8693 143.534 66.5625 142.847 67.017 141.972C67.483 141.085 67.7159 140.068 67.7159 138.92C67.7159 137.761 67.483 136.75 67.017 135.886C66.5625 135.011 65.8693 134.335 64.9375 133.858C64.0057 133.369 62.8239 133.125 61.392 133.125H56.4148V162H49.0341ZM93.2884 149.864H99.5611L102.714 153.92L105.817 157.534L111.663 164.864H104.777L100.754 159.92L98.6918 156.989L93.2884 149.864ZM112.192 144.545C112.192 148.352 111.47 151.591 110.027 154.261C108.595 156.932 106.641 158.972 104.163 160.381C101.697 161.778 98.9247 162.477 95.8452 162.477C92.7429 162.477 89.9588 161.773 87.4929 160.364C85.027 158.955 83.0781 156.915 81.6463 154.244C80.2145 151.574 79.4986 148.341 79.4986 144.545C79.4986 140.739 80.2145 137.5 81.6463 134.83C83.0781 132.159 85.027 130.125 87.4929 128.727C89.9588 127.318 92.7429 126.614 95.8452 126.614C98.9247 126.614 101.697 127.318 104.163 128.727C106.641 130.125 108.595 132.159 110.027 134.83C111.47 137.5 112.192 140.739 112.192 144.545ZM104.709 144.545C104.709 142.08 104.339 140 103.601 138.307C102.874 136.614 101.845 135.33 100.516 134.455C99.1861 133.58 97.6293 133.142 95.8452 133.142C94.0611 133.142 92.5043 133.58 91.1747 134.455C89.8452 135.33 88.8111 136.614 88.0724 138.307C87.3452 140 86.9815 142.08 86.9815 144.545C86.9815 147.011 87.3452 149.091 88.0724 150.784C88.8111 152.477 89.8452 153.761 91.1747 154.636C92.5043 155.511 94.0611 155.949 95.8452 155.949C97.6293 155.949 99.1861 155.511 100.516 154.636C101.845 153.761 102.874 152.477 103.601 150.784C104.339 149.091 104.709 147.011 104.709 144.545ZM117.659 162V127.091H125.04V141.494H140.023V127.091H147.386V162H140.023V147.58H125.04V162H117.659ZM153.472 162V127.091H167.244C169.892 127.091 172.148 127.597 174.011 128.608C175.875 129.608 177.295 131 178.273 132.784C179.261 134.557 179.756 136.602 179.756 138.92C179.756 141.239 179.256 143.284 178.256 145.057C177.256 146.83 175.807 148.21 173.909 149.199C172.023 150.187 169.739 150.682 167.057 150.682H158.278V144.767H165.864C167.284 144.767 168.455 144.523 169.375 144.034C170.307 143.534 171 142.847 171.455 141.972C171.92 141.085 172.153 140.068 172.153 138.92C172.153 137.761 171.92 136.75 171.455 135.886C171 135.011 170.307 134.335 169.375 133.858C168.443 133.369 167.261 133.125 165.83 133.125H160.852V162H153.472Z" fill="black"/>
</svg>
