<svg width="168" height="24" viewBox="0 0 168 24" fill="none" xmlns="http://www.w3.org/2000/svg">
<path d="M32.517 20V2.54545H39.4034C40.7273 2.54545 41.8551 2.7983 42.7869 3.30398C43.7188 3.80398 44.429 4.5 44.9176 5.39204C45.4119 6.27841 45.6591 7.30114 45.6591 8.46023C45.6591 9.61932 45.4091 10.642 44.9091 11.5284C44.4091 12.4148 43.6847 13.1051 42.7358 13.5994C41.7926 14.0938 40.6506 14.3409 39.3097 14.3409H34.9205V11.3835H38.7131C39.4233 11.3835 40.0085 11.2614 40.4688 11.017C40.9347 10.767 41.2812 10.4233 41.5085 9.9858C41.7415 9.54261 41.858 9.03409 41.858 8.46023C41.858 7.88068 41.7415 7.375 41.5085 6.94318C41.2812 6.50568 40.9347 6.16761 40.4688 5.92898C40.0028 5.68466 39.4119 5.5625 38.696 5.5625H36.2074V20H32.517Z" fill="black"/>
<path d="M51.3693 20.2472C50.5341 20.2472 49.7898 20.1023 49.1364 19.8125C48.483 19.517 47.9659 19.0824 47.5852 18.5085C47.2102 17.929 47.0227 17.2074 47.0227 16.3438C47.0227 15.6165 47.1562 15.0057 47.4233 14.5114C47.6903 14.017 48.054 13.6193 48.5142 13.3182C48.9744 13.017 49.4972 12.7898 50.0824 12.6364C50.6733 12.483 51.2926 12.375 51.9403 12.3125C52.7017 12.233 53.3153 12.1591 53.7812 12.0909C54.2472 12.017 54.5852 11.9091 54.7955 11.767C55.0057 11.625 55.1108 11.4148 55.1108 11.1364V11.0852C55.1108 10.5455 54.9403 10.1278 54.5994 9.83239C54.2642 9.53693 53.7869 9.3892 53.1676 9.3892C52.5142 9.3892 51.9943 9.53409 51.608 9.82386C51.2216 10.108 50.9659 10.4659 50.8409 10.8977L47.483 10.625C47.6534 9.82955 47.9886 9.14205 48.4886 8.5625C48.9886 7.97727 49.6335 7.52841 50.4233 7.21591C51.2187 6.89773 52.1392 6.73864 53.1847 6.73864C53.9119 6.73864 54.608 6.82386 55.2727 6.99432C55.9432 7.16477 56.5369 7.42898 57.054 7.78693C57.5767 8.14489 57.9886 8.60511 58.2898 9.16761C58.5909 9.72443 58.7415 10.392 58.7415 11.1705V20H55.2983V18.1847H55.196C54.9858 18.5938 54.7045 18.9545 54.3523 19.267C54 19.5739 53.5767 19.8153 53.0824 19.9915C52.5881 20.1619 52.017 20.2472 51.3693 20.2472ZM52.4091 17.7415C52.9432 17.7415 53.4148 17.6364 53.8239 17.4261C54.233 17.2102 54.554 16.9205 54.7869 16.5568C55.0199 16.1932 55.1364 15.7813 55.1364 15.321V13.9318C55.0227 14.0057 54.8665 14.0739 54.6676 14.1364C54.4744 14.1932 54.2557 14.2472 54.0114 14.2983C53.767 14.3437 53.5227 14.3864 53.2784 14.4261C53.0341 14.4602 52.8125 14.4915 52.6136 14.5199C52.1875 14.5824 51.8153 14.6818 51.4972 14.8182C51.179 14.9545 50.9318 15.1392 50.7557 15.3722C50.5795 15.5994 50.4915 15.8835 50.4915 16.2244C50.4915 16.7188 50.6705 17.0966 51.0284 17.358C51.392 17.6136 51.8523 17.7415 52.4091 17.7415Z" fill="black"/>
<path d="M72.4503 10.642L69.1264 10.8466C69.0696 10.5625 68.9474 10.3068 68.7599 10.0795C68.5724 9.84659 68.3253 9.66193 68.0185 9.52557C67.7173 9.38352 67.3565 9.3125 66.9361 9.3125C66.3736 9.3125 65.8992 9.43182 65.5128 9.67045C65.1264 9.90341 64.9332 10.2159 64.9332 10.608C64.9332 10.9205 65.0582 11.1847 65.3082 11.4006C65.5582 11.6165 65.9872 11.7898 66.5952 11.9205L68.9645 12.3977C70.2372 12.6591 71.1861 13.0795 71.8111 13.6591C72.4361 14.2386 72.7486 15 72.7486 15.9432C72.7486 16.8011 72.4957 17.554 71.9901 18.2017C71.4901 18.8494 70.8026 19.3551 69.9276 19.7188C69.0582 20.0767 68.0554 20.2557 66.919 20.2557C65.1861 20.2557 63.8054 19.8949 62.777 19.1733C61.7543 18.446 61.1548 17.4574 60.9787 16.2074L64.5497 16.0199C64.6577 16.5483 64.919 16.9517 65.3338 17.2301C65.7486 17.5028 66.2798 17.6392 66.9276 17.6392C67.5639 17.6392 68.0753 17.517 68.4616 17.2727C68.8537 17.0227 69.0526 16.7017 69.0582 16.3097C69.0526 15.9801 68.9134 15.7102 68.6406 15.5C68.3679 15.2841 67.9474 15.1193 67.3793 15.0057L65.1122 14.554C63.8338 14.2983 62.8821 13.8551 62.2571 13.2244C61.6378 12.5938 61.3281 11.7898 61.3281 10.8125C61.3281 9.97159 61.5554 9.24716 62.0099 8.6392C62.4702 8.03125 63.1151 7.5625 63.9446 7.23295C64.7798 6.90341 65.7571 6.73864 66.8764 6.73864C68.5298 6.73864 69.831 7.08807 70.7798 7.78693C71.7344 8.4858 72.2912 9.4375 72.4503 10.642Z" fill="black"/>
<path d="M81.9979 6.90909V9.63636H74.1143V6.90909H81.9979ZM75.9041 3.77273H79.5348V15.9773C79.5348 16.3125 79.5859 16.5739 79.6882 16.7614C79.7905 16.9432 79.9325 17.071 80.1143 17.1449C80.3018 17.2187 80.5178 17.2557 80.7621 17.2557C80.9325 17.2557 81.103 17.2415 81.2734 17.2131C81.4439 17.179 81.5746 17.1534 81.6655 17.1364L82.2365 19.8381C82.0547 19.8949 81.799 19.9602 81.4695 20.0341C81.1399 20.1136 80.7393 20.1619 80.2678 20.179C79.3928 20.2131 78.6257 20.0966 77.9666 19.8295C77.3132 19.5625 76.8047 19.1477 76.441 18.5852C76.0774 18.0227 75.8984 17.3125 75.9041 16.4545V3.77273Z" fill="black"/>
<path d="M89.9858 20V2.54545H101.747V5.58807H93.6761V9.74716H101.142V12.7898H93.6761V16.9574H101.781V20H89.9858Z" fill="black"/>
<path d="M116.817 6.90909L112.241 20H108.15L103.573 6.90909H107.408L110.127 16.2756H110.263L112.974 6.90909H116.817Z" fill="black"/>
<path d="M124.219 20.2557C122.873 20.2557 121.714 19.983 120.742 19.4375C119.776 18.8864 119.032 18.108 118.509 17.1023C117.987 16.0909 117.725 14.8949 117.725 13.5142C117.725 12.1676 117.987 10.9858 118.509 9.96875C119.032 8.9517 119.768 8.15909 120.717 7.59091C121.671 7.02273 122.79 6.73864 124.075 6.73864C124.938 6.73864 125.742 6.87784 126.487 7.15625C127.237 7.42898 127.89 7.84091 128.447 8.39205C129.009 8.94318 129.447 9.63636 129.759 10.4716C130.072 11.3011 130.228 12.2727 130.228 13.3864V14.3835H119.174V12.1335H126.81C126.81 11.6108 126.697 11.1477 126.469 10.7443C126.242 10.3409 125.927 10.0256 125.523 9.7983C125.126 9.56534 124.663 9.44886 124.134 9.44886C123.583 9.44886 123.094 9.5767 122.668 9.83239C122.248 10.0824 121.918 10.4205 121.68 10.8466C121.441 11.267 121.319 11.7358 121.313 12.2528V14.392C121.313 15.0398 121.433 15.5994 121.671 16.071C121.915 16.5426 122.259 16.9063 122.702 17.1619C123.146 17.4176 123.671 17.5455 124.279 17.5455C124.683 17.5455 125.052 17.4886 125.387 17.375C125.722 17.2614 126.009 17.0909 126.248 16.8636C126.487 16.6364 126.668 16.358 126.793 16.0284L130.151 16.25C129.981 17.0568 129.631 17.7614 129.103 18.3636C128.58 18.9602 127.904 19.4261 127.075 19.7614C126.251 20.0909 125.299 20.2557 124.219 20.2557Z" fill="black"/>
<path d="M136.228 12.4318V20H132.597V6.90909H136.058V9.21875H136.211C136.501 8.45739 136.987 7.85511 137.668 7.41193C138.35 6.96307 139.177 6.73864 140.148 6.73864C141.058 6.73864 141.85 6.9375 142.526 7.33523C143.202 7.73295 143.728 8.30114 144.103 9.03977C144.478 9.77273 144.665 10.6477 144.665 11.6648V20H141.035V12.3125C141.04 11.5114 140.836 10.8864 140.421 10.4375C140.006 9.98295 139.435 9.75568 138.708 9.75568C138.219 9.75568 137.788 9.8608 137.413 10.071C137.043 10.2812 136.754 10.5881 136.543 10.9915C136.339 11.3892 136.234 11.8693 136.228 12.4318Z" fill="black"/>
<path d="M154.49 6.90909V9.63636H146.607V6.90909H154.49ZM148.396 3.77273H152.027V15.9773C152.027 16.3125 152.078 16.5739 152.18 16.7614C152.283 16.9432 152.425 17.071 152.607 17.1449C152.794 17.2187 153.01 17.2557 153.254 17.2557C153.425 17.2557 153.595 17.2415 153.766 17.2131C153.936 17.179 154.067 17.1534 154.158 17.1364L154.729 19.8381C154.547 19.8949 154.291 19.9602 153.962 20.0341C153.632 20.1136 153.232 20.1619 152.76 20.179C151.885 20.2131 151.118 20.0966 150.459 19.8295C149.805 19.5625 149.297 19.1477 148.933 18.5852C148.57 18.0227 148.391 17.3125 148.396 16.4545V3.77273Z" fill="black"/>
<path d="M167.583 10.642L164.259 10.8466C164.202 10.5625 164.08 10.3068 163.893 10.0795C163.705 9.84659 163.458 9.66193 163.151 9.52557C162.85 9.38352 162.489 9.3125 162.069 9.3125C161.506 9.3125 161.032 9.43182 160.646 9.67045C160.259 9.90341 160.066 10.2159 160.066 10.608C160.066 10.9205 160.191 11.1847 160.441 11.4006C160.691 11.6165 161.12 11.7898 161.728 11.9205L164.097 12.3977C165.37 12.6591 166.319 13.0795 166.944 13.6591C167.569 14.2386 167.881 15 167.881 15.9432C167.881 16.8011 167.629 17.554 167.123 18.2017C166.623 18.8494 165.935 19.3551 165.06 19.7188C164.191 20.0767 163.188 20.2557 162.052 20.2557C160.319 20.2557 158.938 19.8949 157.91 19.1733C156.887 18.446 156.288 17.4574 156.112 16.2074L159.683 16.0199C159.79 16.5483 160.052 16.9517 160.467 17.2301C160.881 17.5028 161.413 17.6392 162.06 17.6392C162.697 17.6392 163.208 17.517 163.594 17.2727C163.987 17.0227 164.185 16.7017 164.191 16.3097C164.185 15.9801 164.046 15.7102 163.773 15.5C163.501 15.2841 163.08 15.1193 162.512 15.0057L160.245 14.554C158.967 14.2983 158.015 13.8551 157.39 13.2244C156.771 12.5938 156.461 11.7898 156.461 10.8125C156.461 9.97159 156.688 9.24716 157.143 8.6392C157.603 8.03125 158.248 7.5625 159.077 7.23295C159.913 6.90341 160.89 6.73864 162.009 6.73864C163.663 6.73864 164.964 7.08807 165.913 7.78693C166.867 8.4858 167.424 9.4375 167.583 10.642Z" fill="black"/>
<path d="M24 12C24 18.6274 18.6274 24 12 24C5.37258 24 0 18.6274 0 12C0 5.37258 5.37258 0 12 0C18.6274 0 24 5.37258 24 12Z" fill="#6F5F8F"/>
</svg>
