<svg width="199" height="24" viewBox="0 0 199 24" fill="none" xmlns="http://www.w3.org/2000/svg">
<path d="M32.517 20V2.54545H39.4034C40.7216 2.54545 41.8466 2.78125 42.7784 3.25284C43.7159 3.71875 44.429 4.38068 44.9176 5.23864C45.4119 6.09091 45.6591 7.09375 45.6591 8.24716C45.6591 9.40625 45.4091 10.4034 44.9091 11.2386C44.4091 12.0682 43.6847 12.7045 42.7358 13.1477C41.7926 13.5909 40.6506 13.8125 39.3097 13.8125H34.6989V10.8466H38.7131C39.4176 10.8466 40.0028 10.75 40.4688 10.5568C40.9347 10.3636 41.2812 10.0739 41.5085 9.6875C41.7415 9.30114 41.858 8.82102 41.858 8.24716C41.858 7.66761 41.7415 7.17898 41.5085 6.78125C41.2812 6.38352 40.9318 6.08239 40.4602 5.87784C39.9943 5.66761 39.4062 5.5625 38.696 5.5625H36.2074V20H32.517ZM41.9432 12.0568L46.2812 20H42.2074L37.9631 12.0568H41.9432Z" fill="black"/>
<path d="M53.9538 20.2557C52.6072 20.2557 51.4482 19.983 50.4766 19.4375C49.5107 18.8864 48.7663 18.108 48.2436 17.1023C47.7209 16.0909 47.4595 14.8949 47.4595 13.5142C47.4595 12.1676 47.7209 10.9858 48.2436 9.96875C48.7663 8.9517 49.5021 8.15909 50.451 7.59091C51.4055 7.02273 52.5249 6.73864 53.8089 6.73864C54.6726 6.73864 55.4766 6.87784 56.2209 7.15625C56.9709 7.42898 57.6243 7.84091 58.1811 8.39205C58.7436 8.94318 59.1811 9.63636 59.4936 10.4716C59.8061 11.3011 59.9624 12.2727 59.9624 13.3864V14.3835H48.9084V12.1335H56.5447C56.5447 11.6108 56.4311 11.1477 56.2038 10.7443C55.9766 10.3409 55.6612 10.0256 55.2578 9.7983C54.8601 9.56534 54.397 9.44886 53.8686 9.44886C53.3175 9.44886 52.8288 9.5767 52.4027 9.83239C51.9822 10.0824 51.6527 10.4205 51.4141 10.8466C51.1754 11.267 51.0533 11.7358 51.0476 12.2528V14.392C51.0476 15.0398 51.1669 15.5994 51.4055 16.071C51.6499 16.5426 51.9936 16.9063 52.4368 17.1619C52.88 17.4176 53.4055 17.5455 54.0135 17.5455C54.4169 17.5455 54.7862 17.4886 55.1214 17.375C55.4567 17.2614 55.7436 17.0909 55.9822 16.8636C56.2209 16.6364 56.4027 16.358 56.5277 16.0284L59.8857 16.25C59.7152 17.0568 59.3658 17.7614 58.8374 18.3636C58.3146 18.9602 57.6385 19.4261 56.8089 19.7614C55.9851 20.0909 55.0334 20.2557 53.9538 20.2557Z" fill="black"/>
<path d="M68.2465 20.2557C66.9055 20.2557 65.7521 19.9716 64.7862 19.4034C63.826 18.8295 63.0874 18.0341 62.5703 17.017C62.0589 16 61.8033 14.8295 61.8033 13.5057C61.8033 12.1648 62.0618 10.9886 62.5788 9.97727C63.1016 8.96023 63.843 8.16761 64.8033 7.59943C65.7635 7.02557 66.9055 6.73864 68.2294 6.73864C69.3714 6.73864 70.3714 6.94602 71.2294 7.36079C72.0874 7.77557 72.7663 8.35795 73.2663 9.10795C73.7663 9.85795 74.0419 10.7386 74.093 11.75H70.6669C70.5703 11.0966 70.3146 10.571 69.8999 10.1733C69.4908 9.76989 68.9538 9.56818 68.2891 9.56818C67.7266 9.56818 67.2351 9.72159 66.8146 10.0284C66.3999 10.3295 66.076 10.7699 65.843 11.3494C65.6101 11.929 65.4936 12.6307 65.4936 13.4545C65.4936 14.2898 65.6072 15 65.8345 15.5852C66.0675 16.1705 66.3942 16.6165 66.8146 16.9233C67.2351 17.2301 67.7266 17.3835 68.2891 17.3835C68.7038 17.3835 69.076 17.2983 69.4055 17.1278C69.7408 16.9574 70.0163 16.7102 70.2322 16.3864C70.4538 16.0568 70.5987 15.6619 70.6669 15.2017H74.093C74.0362 16.2017 73.7635 17.0824 73.2749 17.8438C72.7919 18.5994 72.1243 19.1903 71.272 19.6165C70.4197 20.0426 69.4112 20.2557 68.2465 20.2557Z" fill="black"/>
<path d="M82.3835 20.2557C81.0369 20.2557 79.8778 19.983 78.9062 19.4375C77.9403 18.8864 77.196 18.108 76.6733 17.1023C76.1506 16.0909 75.8892 14.8949 75.8892 13.5142C75.8892 12.1676 76.1506 10.9858 76.6733 9.96875C77.196 8.9517 77.9318 8.15909 78.8807 7.59091C79.8352 7.02273 80.9545 6.73864 82.2386 6.73864C83.1023 6.73864 83.9062 6.87784 84.6506 7.15625C85.4006 7.42898 86.054 7.84091 86.6108 8.39205C87.1733 8.94318 87.6108 9.63636 87.9233 10.4716C88.2358 11.3011 88.392 12.2727 88.392 13.3864V14.3835H77.3381V12.1335H84.9744C84.9744 11.6108 84.8608 11.1477 84.6335 10.7443C84.4062 10.3409 84.0909 10.0256 83.6875 9.7983C83.2898 9.56534 82.8267 9.44886 82.2983 9.44886C81.7472 9.44886 81.2585 9.5767 80.8324 9.83239C80.4119 10.0824 80.0824 10.4205 79.8438 10.8466C79.6051 11.267 79.483 11.7358 79.4773 12.2528V14.392C79.4773 15.0398 79.5966 15.5994 79.8352 16.071C80.0795 16.5426 80.4233 16.9063 80.8665 17.1619C81.3097 17.4176 81.8352 17.5455 82.4432 17.5455C82.8466 17.5455 83.2159 17.4886 83.5511 17.375C83.8864 17.2614 84.1733 17.0909 84.4119 16.8636C84.6506 16.6364 84.8324 16.358 84.9574 16.0284L88.3153 16.25C88.1449 17.0568 87.7955 17.7614 87.267 18.3636C86.7443 18.9602 86.0682 19.4261 85.2386 19.7614C84.4148 20.0909 83.4631 20.2557 82.3835 20.2557Z" fill="black"/>
<path d="M94.392 12.4318V20H90.7614V6.90909H94.2216V9.21875H94.375C94.6648 8.45739 95.1506 7.85511 95.8324 7.41193C96.5142 6.96307 97.3409 6.73864 98.3125 6.73864C99.2216 6.73864 100.014 6.9375 100.69 7.33523C101.366 7.73295 101.892 8.30114 102.267 9.03977C102.642 9.77273 102.83 10.6477 102.83 11.6648V20H99.1989V12.3125C99.2045 11.5114 99 10.8864 98.5852 10.4375C98.1705 9.98295 97.5994 9.75568 96.8722 9.75568C96.3835 9.75568 95.9517 9.8608 95.5767 10.071C95.2074 10.2812 94.9176 10.5881 94.7074 10.9915C94.5028 11.3892 94.3977 11.8693 94.392 12.4318Z" fill="black"/>
<path d="M112.654 6.90909V9.63636H104.771V6.90909H112.654ZM106.56 3.77273H110.191V15.9773C110.191 16.3125 110.242 16.5739 110.344 16.7614C110.447 16.9432 110.589 17.071 110.771 17.1449C110.958 17.2187 111.174 17.2557 111.418 17.2557C111.589 17.2557 111.759 17.2415 111.93 17.2131C112.1 17.179 112.231 17.1534 112.322 17.1364L112.893 19.8381C112.711 19.8949 112.455 19.9602 112.126 20.0341C111.796 20.1136 111.396 20.1619 110.924 20.179C110.049 20.2131 109.282 20.0966 108.623 19.8295C107.969 19.5625 107.461 19.1477 107.097 18.5852C106.734 18.0227 106.555 17.3125 106.56 16.4545V3.77273Z" fill="black"/>
<path d="M120.642 20V2.54545H132.403V5.58807H124.332V9.74716H131.798V12.7898H124.332V16.9574H132.438V20H120.642Z" fill="black"/>
<path d="M147.474 6.90909L142.897 20H138.806L134.229 6.90909H138.065L140.783 16.2756H140.92L143.63 6.90909H147.474Z" fill="black"/>
<path d="M154.876 20.2557C153.529 20.2557 152.37 19.983 151.398 19.4375C150.433 18.8864 149.688 18.108 149.165 17.1023C148.643 16.0909 148.381 14.8949 148.381 13.5142C148.381 12.1676 148.643 10.9858 149.165 9.96875C149.688 8.9517 150.424 8.15909 151.373 7.59091C152.327 7.02273 153.447 6.73864 154.731 6.73864C155.594 6.73864 156.398 6.87784 157.143 7.15625C157.893 7.42898 158.546 7.84091 159.103 8.39205C159.665 8.94318 160.103 9.63636 160.415 10.4716C160.728 11.3011 160.884 12.2727 160.884 13.3864V14.3835H149.83V12.1335H157.467C157.467 11.6108 157.353 11.1477 157.126 10.7443C156.898 10.3409 156.583 10.0256 156.18 9.7983C155.782 9.56534 155.319 9.44886 154.79 9.44886C154.239 9.44886 153.751 9.5767 153.325 9.83239C152.904 10.0824 152.575 10.4205 152.336 10.8466C152.097 11.267 151.975 11.7358 151.969 12.2528V14.392C151.969 15.0398 152.089 15.5994 152.327 16.071C152.572 16.5426 152.915 16.9063 153.359 17.1619C153.802 17.4176 154.327 17.5455 154.935 17.5455C155.339 17.5455 155.708 17.4886 156.043 17.375C156.379 17.2614 156.665 17.0909 156.904 16.8636C157.143 16.6364 157.325 16.358 157.45 16.0284L160.808 16.25C160.637 17.0568 160.288 17.7614 159.759 18.3636C159.237 18.9602 158.56 19.4261 157.731 19.7614C156.907 20.0909 155.955 20.2557 154.876 20.2557Z" fill="black"/>
<path d="M166.884 12.4318V20H163.254V6.90909H166.714V9.21875H166.867C167.157 8.45739 167.643 7.85511 168.325 7.41193C169.006 6.96307 169.833 6.73864 170.805 6.73864C171.714 6.73864 172.506 6.9375 173.183 7.33523C173.859 7.73295 174.384 8.30114 174.759 9.03977C175.134 9.77273 175.322 10.6477 175.322 11.6648V20H171.691V12.3125C171.697 11.5114 171.492 10.8864 171.077 10.4375C170.663 9.98295 170.092 9.75568 169.364 9.75568C168.876 9.75568 168.444 9.8608 168.069 10.071C167.7 10.2812 167.41 10.5881 167.2 10.9915C166.995 11.3892 166.89 11.8693 166.884 12.4318Z" fill="black"/>
<path d="M185.146 6.90909V9.63636H177.263V6.90909H185.146ZM179.053 3.77273H182.683V15.9773C182.683 16.3125 182.734 16.5739 182.837 16.7614C182.939 16.9432 183.081 17.071 183.263 17.1449C183.45 17.2187 183.666 17.2557 183.911 17.2557C184.081 17.2557 184.251 17.2415 184.422 17.2131C184.592 17.179 184.723 17.1534 184.814 17.1364L185.385 19.8381C185.203 19.8949 184.947 19.9602 184.618 20.0341C184.288 20.1136 183.888 20.1619 183.416 20.179C182.541 20.2131 181.774 20.0966 181.115 19.8295C180.462 19.5625 179.953 19.1477 179.589 18.5852C179.226 18.0227 179.047 17.3125 179.053 16.4545V3.77273Z" fill="black"/>
<path d="M198.239 10.642L194.915 10.8466C194.859 10.5625 194.737 10.3068 194.549 10.0795C194.362 9.84659 194.114 9.66193 193.808 9.52557C193.506 9.38352 193.146 9.3125 192.725 9.3125C192.163 9.3125 191.688 9.43182 191.302 9.67045C190.915 9.90341 190.722 10.2159 190.722 10.608C190.722 10.9205 190.847 11.1847 191.097 11.4006C191.347 11.6165 191.776 11.7898 192.384 11.9205L194.754 12.3977C196.026 12.6591 196.975 13.0795 197.6 13.6591C198.225 14.2386 198.538 15 198.538 15.9432C198.538 16.8011 198.285 17.554 197.779 18.2017C197.279 18.8494 196.592 19.3551 195.717 19.7188C194.847 20.0767 193.844 20.2557 192.708 20.2557C190.975 20.2557 189.594 19.8949 188.566 19.1733C187.543 18.446 186.944 17.4574 186.768 16.2074L190.339 16.0199C190.447 16.5483 190.708 16.9517 191.123 17.2301C191.538 17.5028 192.069 17.6392 192.717 17.6392C193.353 17.6392 193.864 17.517 194.251 17.2727C194.643 17.0227 194.842 16.7017 194.847 16.3097C194.842 15.9801 194.702 15.7102 194.43 15.5C194.157 15.2841 193.737 15.1193 193.168 15.0057L190.901 14.554C189.623 14.2983 188.671 13.8551 188.046 13.2244C187.427 12.5938 187.117 11.7898 187.117 10.8125C187.117 9.97159 187.344 9.24716 187.799 8.6392C188.259 8.03125 188.904 7.5625 189.734 7.23295C190.569 6.90341 191.546 6.73864 192.665 6.73864C194.319 6.73864 195.62 7.08807 196.569 7.78693C197.523 8.4858 198.08 9.4375 198.239 10.642Z" fill="black"/>
<path d="M24 12C24 18.6274 18.6274 24 12 24C5.37258 24 0 18.6274 0 12C0 5.37258 5.37258 0 12 0C18.6274 0 24 5.37258 24 12Z" fill="#6F5F8F"/>
</svg>
