<svg width="147" height="51" viewBox="0 0 147 51" fill="none" xmlns="http://www.w3.org/2000/svg">
<path d="M7.71555 13V3.54545H11.6211C12.329 3.54545 12.9399 3.68395 13.4538 3.96094C13.9709 4.23485 14.3694 4.61802 14.6495 5.11044C14.9296 5.59979 15.0696 6.16915 15.0696 6.81854C15.0696 7.471 14.9265 8.0419 14.6403 8.53125C14.3571 9.01752 13.9524 9.39453 13.4261 9.66229C12.8999 9.93004 12.2751 10.0639 11.5518 10.0639H9.14205V8.26349H11.1271C11.4718 8.26349 11.7596 8.20348 11.9904 8.08345C12.2243 7.96342 12.4013 7.79569 12.5213 7.58026C12.6413 7.36174 12.7013 7.10784 12.7013 6.81854C12.7013 6.52616 12.6413 6.27379 12.5213 6.06143C12.4013 5.846 12.2243 5.67981 11.9904 5.56286C11.7565 5.4459 11.4688 5.38743 11.1271 5.38743H10.0007V13H7.71555ZM18.4812 3.54545V13H16.196V3.54545H18.4812ZM19.6064 5.40128V3.54545H27.5976V5.40128H24.7307V13H22.4779V5.40128H19.6064ZM28.4043 5.40128V3.54545H36.3954V5.40128H33.5286V13H31.2757V5.40128H28.4043ZM42.6219 6.37997C42.5911 6.04143 42.4542 5.77829 42.211 5.59055C41.971 5.39974 41.6278 5.30433 41.1816 5.30433C40.8861 5.30433 40.6399 5.3428 40.4429 5.41974C40.2459 5.49669 40.0982 5.60286 39.9997 5.73828C39.9012 5.87062 39.8505 6.02296 39.8474 6.19531C39.8412 6.33688 39.8689 6.46153 39.9305 6.56925C39.9951 6.67696 40.0874 6.77237 40.2075 6.85547C40.3306 6.93549 40.4783 7.00627 40.6507 7.06783C40.823 7.12938 41.0169 7.18324 41.2323 7.2294L42.0448 7.41406C42.5126 7.51562 42.925 7.65104 43.282 7.82031C43.6421 7.98958 43.9437 8.19117 44.1869 8.42507C44.4331 8.65897 44.6193 8.92827 44.7455 9.23295C44.8717 9.53764 44.9363 9.87926 44.9394 10.2578C44.9363 10.8549 44.7855 11.3673 44.4869 11.7951C44.1884 12.2229 43.7591 12.5507 43.199 12.7784C42.6419 13.0062 41.9694 13.12 41.1816 13.12C40.3906 13.12 39.7012 13.0015 39.1134 12.7646C38.5255 12.5276 38.0685 12.1675 37.7423 11.6843C37.416 11.2011 37.2483 10.5902 37.2391 9.85156H39.4273C39.4458 10.1562 39.5273 10.4102 39.672 10.6133C39.8166 10.8164 40.0151 10.9703 40.2675 11.0749C40.5229 11.1796 40.8184 11.2319 41.1539 11.2319C41.4616 11.2319 41.7232 11.1903 41.9387 11.1072C42.1572 11.0241 42.3249 10.9087 42.4419 10.761C42.5588 10.6133 42.6188 10.444 42.6219 10.2532C42.6188 10.0747 42.5634 9.92235 42.4557 9.79616C42.348 9.6669 42.1818 9.55611 41.9571 9.46378C41.7355 9.36837 41.4524 9.28066 41.1077 9.20064L40.1198 8.96982C39.3011 8.78208 38.6563 8.47893 38.1855 8.06037C37.7146 7.63873 37.4807 7.06937 37.4838 6.35227C37.4807 5.76752 37.6376 5.25509 37.9546 4.81499C38.2716 4.37488 38.7102 4.03172 39.2703 3.78551C39.8305 3.5393 40.4691 3.41619 41.1862 3.41619C41.9186 3.41619 42.5542 3.54084 43.0928 3.79013C43.6344 4.03634 44.0545 4.38258 44.3531 4.82884C44.6516 5.27509 44.8039 5.79214 44.8101 6.37997H42.6219ZM46.0935 13V3.54545H50.036C50.7438 3.54545 51.3363 3.64548 51.8133 3.84553C52.2934 4.04557 52.6535 4.32564 52.8936 4.68572C53.1367 5.04581 53.2583 5.46283 53.2583 5.93679C53.2583 6.29688 53.1829 6.61849 53.032 6.90163C52.8812 7.1817 52.6735 7.41406 52.4088 7.59872C52.1441 7.78338 51.8379 7.91264 51.4901 7.98651V8.07883C51.8718 8.0973 52.2242 8.2004 52.5473 8.38814C52.8736 8.57588 53.1352 8.83748 53.3321 9.17294C53.5291 9.50533 53.6276 9.89927 53.6276 10.3548C53.6276 10.8626 53.4983 11.3165 53.2398 11.7166C52.9813 12.1136 52.6073 12.4276 52.118 12.6584C51.6286 12.8861 51.0347 13 50.336 13H46.0935ZM48.3786 11.158H49.7913C50.2868 11.158 50.6515 11.0642 50.8854 10.8764C51.1224 10.6887 51.2409 10.4271 51.2409 10.0916C51.2409 9.84848 51.1839 9.6392 51.07 9.46378C50.9562 9.28527 50.7946 9.14832 50.5853 9.05291C50.376 8.95443 50.1252 8.90518 49.8328 8.90518H48.3786V11.158ZM48.3786 7.43253H49.6436C49.8928 7.43253 50.1144 7.39098 50.3083 7.30788C50.5022 7.22479 50.653 7.10476 50.7607 6.9478C50.8715 6.79084 50.9269 6.60156 50.9269 6.37997C50.9269 6.06297 50.8146 5.81368 50.5899 5.6321C50.3653 5.45052 50.0621 5.35973 49.6805 5.35973H48.3786V7.43253ZM60.4461 3.54545H62.7267V9.64382C62.7267 10.3486 62.5589 10.9626 62.2235 11.4858C61.888 12.0059 61.4202 12.4091 60.82 12.6953C60.2199 12.9785 59.5228 13.12 58.7288 13.12C57.9255 13.12 57.2238 12.9785 56.6237 12.6953C56.0235 12.4091 55.5573 12.0059 55.2249 11.4858C54.8925 10.9626 54.7263 10.3486 54.7263 9.64382V3.54545H57.0115V9.44531C57.0115 9.77154 57.0822 10.0624 57.2238 10.3178C57.3685 10.5733 57.57 10.7733 57.8286 10.918C58.0871 11.0626 58.3872 11.1349 58.7288 11.1349C59.0704 11.1349 59.3689 11.0626 59.6244 10.918C59.8829 10.7733 60.0845 10.5733 60.2291 10.3178C60.3738 10.0624 60.4461 9.77154 60.4461 9.44531V3.54545ZM64.1589 13V3.54545H68.0645C68.7723 3.54545 69.3832 3.67318 69.8972 3.92862C70.4142 4.18099 70.8128 4.54415 71.0929 5.01811C71.3729 5.48899 71.513 6.04758 71.513 6.69389C71.513 7.34943 71.3699 7.90649 71.0836 8.36506C70.7974 8.82055 70.3912 9.16832 69.8649 9.40838C69.3386 9.64536 68.7154 9.76385 67.9952 9.76385H65.5254V7.96342H67.5705C67.9152 7.96342 68.2029 7.9188 68.4338 7.82955C68.6677 7.73722 68.8446 7.59872 68.9647 7.41406C69.0847 7.22633 69.1447 6.98627 69.1447 6.69389C69.1447 6.40151 69.0847 6.15992 68.9647 5.96911C68.8446 5.77521 68.6677 5.63056 68.4338 5.53516C68.1999 5.43667 67.9121 5.38743 67.5705 5.38743H66.4441V13H64.1589ZM69.4817 8.67898L71.8361 13H69.3432L67.035 8.67898H69.4817ZM78.9709 6.63388C78.9186 6.43999 78.8416 6.26918 78.7401 6.12145C78.6385 5.97064 78.5138 5.84292 78.3661 5.73828C78.2184 5.63364 78.0491 5.55516 77.8583 5.50284C77.6675 5.44744 77.4582 5.41974 77.2305 5.41974C76.7719 5.41974 76.3749 5.53054 76.0394 5.75213C75.707 5.97372 75.45 6.29687 75.2685 6.72159C75.0869 7.14323 74.9961 7.65566 74.9961 8.25888C74.9961 8.86518 75.0838 9.38222 75.2592 9.81001C75.4347 10.2378 75.6886 10.564 76.021 10.7887C76.3533 11.0134 76.7565 11.1257 77.2305 11.1257C77.649 11.1257 78.003 11.058 78.2923 10.9226C78.5846 10.7841 78.8062 10.5887 78.957 10.3363C79.1078 10.0839 79.1832 9.78693 79.1832 9.44531L79.608 9.49609H77.3089V7.82955H81.3853V9.08061C81.3853 9.92696 81.2053 10.6518 80.8452 11.255C80.4882 11.8582 79.9957 12.3214 79.3679 12.6445C78.7431 12.9677 78.0245 13.1293 77.212 13.1293C76.3103 13.1293 75.5178 12.9338 74.8345 12.543C74.1513 12.1521 73.6188 11.5951 73.2372 10.8718C72.8556 10.1455 72.6648 9.28374 72.6648 8.28658C72.6648 7.51101 72.7802 6.82315 73.011 6.22301C73.2418 5.61979 73.5634 5.1089 73.9759 4.69034C74.3913 4.27178 74.8714 3.95478 75.4162 3.73935C75.964 3.52391 76.5534 3.41619 77.1843 3.41619C77.7321 3.41619 78.2415 3.49467 78.7124 3.65163C79.1863 3.80859 79.6049 4.03018 79.968 4.31641C80.3343 4.60263 80.6313 4.94271 80.859 5.33665C81.0868 5.73059 81.2283 6.163 81.2837 6.63388H78.9709ZM82.7322 13V3.54545H85.0173V7.3402H88.7428V3.54545H91.0233V13H88.7428V9.20064H85.0173V13H82.7322ZM11.3303 25.6023H13.1768L13.9616 26.604L14.9911 27.7859L16.5746 29.7386H14.5064L13.3984 28.4137L12.7429 27.4719L11.3303 25.6023ZM16.6392 24.2727C16.6392 25.313 16.4392 26.1947 16.0391 26.918C15.639 27.6412 15.0973 28.1906 14.4141 28.5661C13.7339 28.9415 12.9706 29.1293 12.1243 29.1293C11.2749 29.1293 10.5101 28.94 9.8299 28.5614C9.14974 28.1829 8.60961 27.6335 8.20952 26.9134C7.8125 26.1901 7.61399 25.3099 7.61399 24.2727C7.61399 23.2325 7.8125 22.3507 8.20952 21.6275C8.60961 20.9042 9.14974 20.3549 9.8299 19.9794C10.5101 19.6039 11.2749 19.4162 12.1243 19.4162C12.9706 19.4162 13.7339 19.6039 14.4141 19.9794C15.0973 20.3549 15.639 20.9042 16.0391 21.6275C16.4392 22.3507 16.6392 23.2325 16.6392 24.2727ZM14.3033 24.2727C14.3033 23.6572 14.2156 23.1371 14.0401 22.7124C13.8678 22.2876 13.6185 21.966 13.2923 21.7475C12.9691 21.529 12.5798 21.4197 12.1243 21.4197C11.6719 21.4197 11.2826 21.529 10.9563 21.7475C10.6301 21.966 10.3793 22.2876 10.2038 22.7124C10.0315 23.1371 9.94531 23.6572 9.94531 24.2727C9.94531 24.8883 10.0315 25.4084 10.2038 25.8331C10.3793 26.2578 10.6301 26.5794 10.9563 26.7979C11.2826 27.0165 11.6719 27.1257 12.1243 27.1257C12.5798 27.1257 12.9691 27.0165 13.2923 26.7979C13.6185 26.5794 13.8678 26.2578 14.0401 25.8331C14.2156 25.4084 14.3033 24.8883 14.3033 24.2727ZM23.7059 19.5455H25.9864V25.6438C25.9864 26.3486 25.8187 26.9626 25.4832 27.4858C25.1478 28.0059 24.68 28.4091 24.0798 28.6953C23.4797 28.9785 22.7826 29.12 21.9885 29.12C21.1853 29.12 20.4836 28.9785 19.8834 28.6953C19.2833 28.4091 18.817 28.0059 18.4846 27.4858C18.1523 26.9626 17.9861 26.3486 17.9861 25.6438V19.5455H20.2712V25.4453C20.2712 25.7715 20.342 26.0624 20.4836 26.3178C20.6282 26.5733 20.8298 26.7733 21.0883 26.918C21.3469 27.0626 21.6469 27.1349 21.9885 27.1349C22.3302 27.1349 22.6287 27.0626 22.8841 26.918C23.1427 26.7733 23.3443 26.5733 23.4889 26.3178C23.6336 26.0624 23.7059 25.7715 23.7059 25.4453V19.5455ZM27.4187 29V19.5455H34.011V21.4013H29.7038V23.3402H33.674V25.2006H29.7038V27.1442H34.011V29H27.4187ZM35.4421 29V19.5455H42.0344V21.4013H37.7273V23.3402H41.6974V25.2006H37.7273V27.1442H42.0344V29H35.4421ZM43.4656 29V19.5455H47.3711C48.079 19.5455 48.6899 19.6732 49.2038 19.9286C49.7209 20.181 50.1194 20.5442 50.3995 21.0181C50.6796 21.489 50.8196 22.0476 50.8196 22.6939C50.8196 23.3494 50.6765 23.9065 50.3903 24.3651C50.104 24.8205 49.6978 25.1683 49.1715 25.4084C48.6452 25.6454 48.022 25.7638 47.3018 25.7638H44.832V23.9634H46.8771C47.2218 23.9634 47.5096 23.9188 47.7404 23.8295C47.9743 23.7372 48.1513 23.5987 48.2713 23.4141C48.3913 23.2263 48.4513 22.9863 48.4513 22.6939C48.4513 22.4015 48.3913 22.1599 48.2713 21.9691C48.1513 21.7752 47.9743 21.6306 47.7404 21.5352C47.5065 21.4367 47.2188 21.3874 46.8771 21.3874H45.7507V29H43.4656ZM48.7884 24.679L51.1428 29H48.6499L46.3416 24.679H48.7884ZM54.8659 29V19.5455H57.1511V23.3402H60.8766V19.5455H63.1571V29H60.8766V25.2006H57.1511V29H54.8659ZM66.8757 19.5455V29H64.5906V19.5455H66.8757ZM73.4207 22.38C73.3899 22.0414 73.253 21.7783 73.0099 21.5906C72.7698 21.3997 72.4266 21.3043 71.9804 21.3043C71.6849 21.3043 71.4387 21.3428 71.2417 21.4197C71.0448 21.4967 70.897 21.6029 70.7986 21.7383C70.7001 21.8706 70.6493 22.023 70.6462 22.1953C70.6401 22.3369 70.6678 22.4615 70.7293 22.5692C70.7939 22.677 70.8863 22.7724 71.0063 22.8555C71.1294 22.9355 71.2771 23.0063 71.4495 23.0678C71.6218 23.1294 71.8157 23.1832 72.0312 23.2294L72.8437 23.4141C73.3115 23.5156 73.7239 23.651 74.0809 23.8203C74.441 23.9896 74.7426 24.1912 74.9857 24.4251C75.2319 24.659 75.4181 24.9283 75.5443 25.233C75.6705 25.5376 75.7351 25.8793 75.7382 26.2578C75.7351 26.8549 75.5843 27.3673 75.2858 27.7951C74.9872 28.2229 74.5579 28.5507 73.9978 28.7784C73.4407 29.0062 72.7683 29.12 71.9804 29.12C71.1894 29.12 70.5 29.0015 69.9122 28.7646C69.3244 28.5276 68.8673 28.1675 68.5411 27.6843C68.2149 27.2011 68.0471 26.5902 68.0379 25.8516H70.2261C70.2446 26.1562 70.3261 26.4102 70.4708 26.6133C70.6154 26.8164 70.814 26.9703 71.0663 27.0749C71.3218 27.1796 71.6172 27.2319 71.9527 27.2319C72.2604 27.2319 72.522 27.1903 72.7375 27.1072C72.956 27.0241 73.1237 26.9087 73.2407 26.761C73.3576 26.6133 73.4176 26.444 73.4207 26.2532C73.4176 26.0747 73.3622 25.9223 73.2545 25.7962C73.1468 25.6669 72.9806 25.5561 72.7559 25.4638C72.5344 25.3684 72.2512 25.2807 71.9065 25.2006L70.9186 24.9698C70.0999 24.7821 69.4552 24.4789 68.9843 24.0604C68.5134 23.6387 68.2795 23.0694 68.2826 22.3523C68.2795 21.7675 68.4365 21.2551 68.7535 20.815C69.0705 20.3749 69.509 20.0317 70.0692 19.7855C70.6293 19.5393 71.2679 19.4162 71.985 19.4162C72.7175 19.4162 73.353 19.5408 73.8916 19.7901C74.4333 20.0363 74.8534 20.3826 75.1519 20.8288C75.4504 21.2751 75.6028 21.7921 75.6089 22.38H73.4207ZM76.583 21.4013V19.5455H84.5741V21.4013H81.7073V29H79.4545V21.4013H76.583ZM94.1822 24.2727C94.1822 25.313 93.9821 26.1947 93.582 26.918C93.1819 27.6412 92.6403 28.1906 91.957 28.5661C91.2769 28.9415 90.5136 29.1293 89.6673 29.1293C88.8178 29.1293 88.053 28.94 87.3729 28.5614C86.6927 28.1829 86.1526 27.6335 85.7525 26.9134C85.3555 26.1901 85.157 25.3099 85.157 24.2727C85.157 23.2325 85.3555 22.3507 85.7525 21.6275C86.1526 20.9042 86.6927 20.3549 87.3729 19.9794C88.053 19.6039 88.8178 19.4162 89.6673 19.4162C90.5136 19.4162 91.2769 19.6039 91.957 19.9794C92.6403 20.3549 93.1819 20.9042 93.582 21.6275C93.9821 22.3507 94.1822 23.2325 94.1822 24.2727ZM91.8462 24.2727C91.8462 23.6572 91.7585 23.1371 91.5831 22.7124C91.4107 22.2876 91.1615 21.966 90.8352 21.7475C90.5121 21.529 90.1228 21.4197 89.6673 21.4197C89.2148 21.4197 88.8255 21.529 88.4993 21.7475C88.1731 21.966 87.9222 22.2876 87.7468 22.7124C87.5745 23.1371 87.4883 23.6572 87.4883 24.2727C87.4883 24.8883 87.5745 25.4084 87.7468 25.8331C87.9222 26.2578 88.1731 26.5794 88.4993 26.7979C88.8255 27.0165 89.2148 27.1257 89.6673 27.1257C90.1228 27.1257 90.5121 27.0165 90.8352 26.7979C91.1615 26.5794 91.4107 26.2578 91.5831 25.8331C91.7585 25.4084 91.8462 24.8883 91.8462 24.2727ZM95.5163 29V19.5455H99.4219C100.13 19.5455 100.741 19.6732 101.255 19.9286C101.772 20.181 102.17 20.5442 102.45 21.0181C102.73 21.489 102.87 22.0476 102.87 22.6939C102.87 23.3494 102.727 23.9065 102.441 24.3651C102.155 24.8205 101.749 25.1683 101.222 25.4084C100.696 25.6454 100.073 25.7638 99.3526 25.7638H96.8828V23.9634H98.9279C99.2726 23.9634 99.5604 23.9188 99.7912 23.8295C100.025 23.7372 100.202 23.5987 100.322 23.4141C100.442 23.2263 100.502 22.9863 100.502 22.6939C100.502 22.4015 100.442 22.1599 100.322 21.9691C100.202 21.7752 100.025 21.6306 99.7912 21.5352C99.5573 21.4367 99.2695 21.3874 98.9279 21.3874H97.8015V29H95.5163ZM100.839 24.679L103.194 29H100.701L98.3924 24.679H100.839ZM103.234 19.5455H105.787L107.786 23.5018H107.869L109.868 19.5455H112.421L108.963 25.8423V29H106.692V25.8423L103.234 19.5455ZM7.71555 45V35.5455H11.6211C12.329 35.5455 12.9399 35.6839 13.4538 35.9609C13.9709 36.2348 14.3694 36.618 14.6495 37.1104C14.9296 37.5998 15.0696 38.1692 15.0696 38.8185C15.0696 39.471 14.9265 40.0419 14.6403 40.5312C14.3571 41.0175 13.9524 41.3945 13.4261 41.6623C12.8999 41.93 12.2751 42.0639 11.5518 42.0639H9.14205V40.2635H11.1271C11.4718 40.2635 11.7596 40.2035 11.9904 40.0835C12.2243 39.9634 12.4013 39.7957 12.5213 39.5803C12.6413 39.3617 12.7013 39.1078 12.7013 38.8185C12.7013 38.5262 12.6413 38.2738 12.5213 38.0614C12.4013 37.846 12.2243 37.6798 11.9904 37.5629C11.7565 37.4459 11.4688 37.3874 11.1271 37.3874H10.0007V45H7.71555ZM16.196 45V35.5455H20.1016C20.8094 35.5455 21.4203 35.6732 21.9343 35.9286C22.4513 36.181 22.8499 36.5442 23.13 37.0181C23.41 37.489 23.5501 38.0476 23.5501 38.6939C23.5501 39.3494 23.407 39.9065 23.1207 40.3651C22.8345 40.8205 22.4283 41.1683 21.902 41.4084C21.3757 41.6454 20.7525 41.7638 20.0323 41.7638H17.5625V39.9634H19.6076C19.9523 39.9634 20.2401 39.9188 20.4709 39.8295C20.7048 39.7372 20.8817 39.5987 21.0018 39.4141C21.1218 39.2263 21.1818 38.9863 21.1818 38.6939C21.1818 38.4015 21.1218 38.1599 21.0018 37.9691C20.8817 37.7752 20.7048 37.6306 20.4709 37.5352C20.237 37.4367 19.9492 37.3874 19.6076 37.3874H18.4812V45H16.196ZM21.5188 40.679L23.8732 45H21.3803L19.0721 40.679H21.5188ZM33.7271 40.2727C33.7271 41.313 33.527 42.1947 33.127 42.918C32.7269 43.6412 32.1852 44.1906 31.502 44.5661C30.8218 44.9415 30.0585 45.1293 29.2122 45.1293C28.3627 45.1293 27.598 44.94 26.9178 44.5614C26.2376 44.1829 25.6975 43.6335 25.2974 42.9134C24.9004 42.1901 24.7019 41.3099 24.7019 40.2727C24.7019 39.2325 24.9004 38.3507 25.2974 37.6275C25.6975 36.9042 26.2376 36.3549 26.9178 35.9794C27.598 35.6039 28.3627 35.4162 29.2122 35.4162C30.0585 35.4162 30.8218 35.6039 31.502 35.9794C32.1852 36.3549 32.7269 36.9042 33.127 37.6275C33.527 38.3507 33.7271 39.2325 33.7271 40.2727ZM31.3912 40.2727C31.3912 39.6572 31.3034 39.1371 31.128 38.7124C30.9557 38.2876 30.7064 37.966 30.3801 37.7475C30.057 37.529 29.6677 37.4197 29.2122 37.4197C28.7598 37.4197 28.3704 37.529 28.0442 37.7475C27.718 37.966 27.4672 38.2876 27.2917 38.7124C27.1194 39.1371 27.0332 39.6572 27.0332 40.2727C27.0332 40.8883 27.1194 41.4084 27.2917 41.8331C27.4672 42.2578 27.718 42.5794 28.0442 42.7979C28.3704 43.0165 28.7598 43.1257 29.2122 43.1257C29.6677 43.1257 30.057 43.0165 30.3801 42.7979C30.7064 42.5794 30.9557 42.2578 31.128 41.8331C31.3034 41.4084 31.3912 40.8883 31.3912 40.2727ZM38.9022 35.5455H41.155V42.0824C41.1519 42.6948 41.0057 43.2304 40.7164 43.6889C40.4271 44.1444 40.027 44.4983 39.5162 44.7507C39.0083 45.0031 38.4205 45.1293 37.7527 45.1293C37.1618 45.1293 36.6247 45.0262 36.1415 44.82C35.6614 44.6138 35.2782 44.2937 34.992 43.8597C34.7089 43.4258 34.5688 42.8703 34.5719 42.1932H36.8478C36.8571 42.4363 36.9032 42.6441 36.9863 42.8164C37.0725 42.9857 37.191 43.1134 37.3418 43.1996C37.4926 43.2857 37.6726 43.3288 37.8819 43.3288C38.1004 43.3288 38.2851 43.2827 38.4359 43.1903C38.5867 43.0949 38.7006 42.9549 38.7775 42.7702C38.8575 42.5856 38.8991 42.3563 38.9022 42.0824V35.5455ZM42.5896 45V35.5455H49.1819V37.4013H44.8747V39.3402H48.8449V41.2006H44.8747V43.1442H49.1819V45H42.5896ZM59.195 38.9709H56.8868C56.856 38.7339 56.7929 38.52 56.6975 38.3292C56.6021 38.1384 56.4759 37.9753 56.319 37.8398C56.162 37.7044 55.9758 37.6013 55.7604 37.5305C55.548 37.4567 55.3126 37.4197 55.0541 37.4197C54.5955 37.4197 54.2 37.5321 53.8676 37.7567C53.5383 37.9814 53.2844 38.3061 53.1059 38.7308C52.9305 39.1555 52.8428 39.6695 52.8428 40.2727C52.8428 40.9006 52.932 41.4268 53.1105 41.8516C53.2921 42.2732 53.546 42.5917 53.8722 42.8072C54.2016 43.0195 54.5909 43.1257 55.0402 43.1257C55.2926 43.1257 55.5219 43.0934 55.7281 43.0288C55.9374 42.9641 56.1205 42.8703 56.2774 42.7472C56.4375 42.621 56.5683 42.4686 56.6698 42.2901C56.7745 42.1085 56.8468 41.9039 56.8868 41.6761L59.195 41.69C59.155 42.1085 59.0335 42.521 58.8303 42.9272C58.6303 43.3335 58.3548 43.7043 58.004 44.0398C57.6531 44.3722 57.2253 44.6368 56.7206 44.8338C56.219 45.0308 55.6434 45.1293 54.9941 45.1293C54.1385 45.1293 53.3721 44.9415 52.695 44.5661C52.021 44.1875 51.4886 43.6366 51.0977 42.9134C50.7069 42.1901 50.5115 41.3099 50.5115 40.2727C50.5115 39.2325 50.71 38.3507 51.107 37.6275C51.504 36.9042 52.041 36.3549 52.7181 35.9794C53.3952 35.6039 54.1539 35.4162 54.9941 35.4162C55.5665 35.4162 56.0959 35.4962 56.5821 35.6562C57.0684 35.8132 57.4962 36.044 57.8655 36.3487C58.2348 36.6503 58.5349 37.0212 58.7657 37.4613C58.9965 37.9014 59.1396 38.4046 59.195 38.9709ZM60.1934 37.4013V35.5455H68.1845V37.4013H65.3176V45H63.0648V37.4013H60.1934Z" fill="black"/>
<line x1="0.5" y1="3" x2="0.500002" y2="46" stroke="black"/>
</svg>
